<svg viewBox="0 0 64 64" xmlns="http://www.w3.org/2000/svg" role="img" aria-label="AniShiki AS">
  <defs>
    <linearGradient id="bg" x1="9" y1="6" x2="55" y2="58" gradientUnits="userSpaceOnUse">
      <stop offset="0" stop-color="#191316"/>
      <stop offset="1" stop-color="#080708"/>
    </linearGradient>
    <linearGradient id="stroke" x1="16" y1="14" x2="48" y2="50" gradientUnits="userSpaceOnUse">
      <stop offset="0" stop-color="#ff7a9c"/>
      <stop offset="1" stop-color="#cc2e56"/>
    </linearGradient>
  </defs>

  <rect width="64" height="64" rx="17" fill="url(#bg)"/>
  <path d="M18 47 29.5 17 41 47" fill="none" stroke="url(#stroke)" stroke-width="5.4" stroke-linecap="round" stroke-linejoin="round"/>
  <path d="M23.8 35.5h11.4" fill="none" stroke="#fff4ee" stroke-width="4.4" stroke-linecap="round"/>
  <path d="M43.5 18.5c-5.4 0-8.3 2.4-8.3 5.7 0 7.6 13.6 4.6 13.6 13.2 0 4.9-4.1 8.1-10.6 8.1-3.4 0-6.7-.9-9.1-2.5" fill="none" stroke="url(#stroke)" stroke-width="5.4" stroke-linecap="round"/>
  <path d="M43.7 13.6c-1.1 2.8-.9 5.3.6 7.6 1.9-1.8 2.9-4 2.9-6.8 0-1-1.1-1.5-1.8-.8h-1.7Z" fill="#ffb6c8"/>
</svg>
