<svg viewBox="0 0 64 64" xmlns="http://www.w3.org/2000/svg" role="img" aria-label="AniShiki Play">
  <defs>
    <linearGradient id="bg" x1="10" y1="6" x2="54" y2="58" gradientUnits="userSpaceOnUse">
      <stop offset="0" stop-color="#191316"/>
      <stop offset="1" stop-color="#080708"/>
    </linearGradient>
    <linearGradient id="mark" x1="19" y1="13" x2="47" y2="52" gradientUnits="userSpaceOnUse">
      <stop offset="0" stop-color="#ff6f93"/>
      <stop offset="1" stop-color="#cc2e56"/>
    </linearGradient>
    <filter id="soft" x="-30%" y="-30%" width="160%" height="160%">
      <feGaussianBlur stdDeviation="2.6"/>
    </filter>
  </defs>

  <rect width="64" height="64" rx="17" fill="url(#bg)"/>
  <circle cx="43" cy="21" r="15" fill="#cc2e56" opacity=".18" filter="url(#soft)"/>
  <path
    d="M22 18.5c0-2.7 2.9-4.4 5.3-3.1l22.4 13.1c2.3 1.4 2.3 4.6 0 6L27.3 47.6c-2.4 1.4-5.3-.4-5.3-3.1v-26Z"
    fill="url(#mark)"/>
  <path
    d="M30.2 25.4c0-1.2 1.3-2 2.4-1.4l10.8 6.2c1.1.6 1.1 2.1 0 2.8l-10.8 6.2c-1.1.6-2.4-.2-2.4-1.4V25.4Z"
    fill="#fff4ee" opacity=".92"/>
  <path d="M19 18c-2.9 1.2-4.6 3.3-4.9 6.4 2.8-.5 4.9-2.2 6.2-5.1.4-.9-.4-1.7-1.3-1.3Z" fill="#ffb6c8"/>
  <path d="M21.9 13.3c-.5 3 .3 5.4 2.5 7.3 1.4-2.3 1.8-4.8 1.1-7.5-.3-1-1.4-1-1.9-.2l-1.7.4Z" fill="#ff6f93"/>
  <circle cx="45.5" cy="17.5" r="1.7" fill="#fff4ee" opacity=".8"/>
</svg>
